<svg xmlns="http://www.w3.org/2000/svg" version="1.1" xmlns:xlink="http://www.w3.org/1999/xlink" xmlns:svgjs="http://svgjs.dev/svgjs" width="1000" height="237" viewBox="0 0 1000 237"><g transform="matrix(1,0,0,1,-0.6060359453913975,0.4248712396664729)"><svg viewBox="0 0 396 94" data-background-color="#ffffff" preserveAspectRatio="xMidYMid meet" height="237" width="1000" xmlns="http://www.w3.org/2000/svg" xmlns:xlink="http://www.w3.org/1999/xlink"><g id="tight-bounds" transform="matrix(1,0,0,1,0.239990234375,-0.168514331344511)"><svg viewBox="0 0 395.52 94.337028662689" height="94.337028662689" width="395.52"><g><svg viewBox="0 0 534.5021786002735 127.48621395348836" height="94.337028662689" width="395.52"><g transform="matrix(1,0,0,1,138.98217860027358,39.39509056087551)"><svg viewBox="0 0 395.52 48.69603283173734" height="48.69603283173734" width="395.52"><g id="textblocktransform"><svg viewBox="0 0 395.52 48.69603283173734" height="48.69603283173734" width="395.52" id="textblock"><g><svg viewBox="0 0 395.52 48.69603283173734" height="48.69603283173734" width="395.52"><g transform="matrix(1,0,0,1,0,0)"><svg width="395.52" viewBox="0.6600000262260437 -32.400001525878906 267.67999267578125 32.96000289916992" height="48.69603283173734" data-palette-color="#ffffff"><path d="M21.95-8.74L21.95-8.74Q21.95-6.54 21.2-4.82 20.46-3.1 19.18-1.9 17.9-0.71 16.13-0.07 14.36 0.56 12.35 0.56L12.35 0.56Q10.11 0.56 8.3-0.24 6.49-1.05 5.2-2.91L5.2-2.91 5.2 0 0.66 0 0.66-10.4 5.2-10.4Q5.2-8.84 5.75-7.64 6.3-6.45 7.2-5.63 8.11-4.81 9.3-4.38 10.5-3.96 11.84-3.96L11.84-3.96Q14.11-3.96 15.5-5 16.89-6.05 16.89-8.35L16.89-8.35Q16.89-9.55 16.47-10.4 16.04-11.25 15.25-11.93 14.45-12.6 13.31-13.1 12.16-13.6 10.69-14.16L10.69-14.16Q8.96-14.75 7.23-15.48 5.49-16.21 4.13-17.29 2.76-18.36 1.9-19.93 1.05-21.51 1.05-23.9L1.05-23.9Q1.05-26 1.82-27.58 2.59-29.15 3.87-30.22 5.15-31.3 6.85-31.85 8.54-32.4 10.45-32.4L10.45-32.4Q12.65-32.4 14.22-31.47 15.8-30.54 16.65-29L16.65-29 16.65-31.86 21.19-31.86 21.19-21.95 16.65-21.95Q16.65-24.76 15.17-26.33 13.7-27.91 11.21-27.91L11.21-27.91Q9.01-27.91 7.56-26.88 6.1-25.85 6.1-24L6.1-24Q6.1-23.05 6.48-22.38 6.86-21.7 7.58-21.15 8.3-20.61 9.4-20.13 10.5-19.65 11.94-19.09L11.94-19.09Q13.75-18.46 15.53-17.65 17.31-16.85 18.73-15.67 20.14-14.5 21.04-12.83 21.95-11.16 21.95-8.74ZM50.53-31.86L50.53-27.29 48.24-27.29 41.18-12.99 41.18-4.54 46.29-4.54 46.29 0 31.05 0 31.05-4.54 36.13-4.54 36.13-12.99 29.1-27.29 26.8-27.29 26.8-31.86 36.84-31.86 36.84-27.29 34.64-27.29 38.69-17.94 42.7-27.29 40.5-27.29 40.5-31.86 50.53-31.86ZM76.14-31.86L76.14 0 70.28 0 60.83-23.1 60.83 0 55.78 0 55.78-31.86 62.13-31.86 71.09-9.91 71.09-31.86 76.14-31.86ZM104.58-31.86L104.58-20.24 100.07-20.24 100.07-27.29 95.77-27.29 95.77-4.54 100.82-4.54 100.82 0 85.69 0 85.69-4.54 90.72-4.54 90.72-27.29 86.37-27.29 86.37-20.24 81.88-20.24 81.88-31.86 104.58-31.86ZM133.41 0L128.12 0 125.82-7.59 115.27-7.59 113.03 0 107.73 0 117.67-31.86 123.48-31.86 133.41 0ZM120.57-25.2L116.62-12.06 124.48-12.06 120.57-25.2ZM159.7-4.54L159.7 0 149.3 0 149.3-4.54 151.11-4.54 147.77-11.74 144.42-4.54 146.2-4.54 146.2 0 135.9 0 135.9-4.54 138.66-4.54 144.86-16.09 138.76-27.29 136.46-27.29 136.46-31.86 146.57-31.86 146.57-27.29 144.52-27.29 147.77-20.24 151.06-27.29 149.06-27.29 149.06-31.86 159.22-31.86 159.22-27.29 156.75-27.29 150.67-16.09 156.87-4.54 159.7-4.54ZM186.51-9.4L163.75-9.4 163.75-13.94 186.51-13.94 186.51-9.4ZM213.75-8.74L213.75-8.74Q213.75-4.39 210.8-2.2 207.84 0 202.4 0L202.4 0 192.24 0 192.24-31.86 201.84-31.86Q203.84-31.86 205.77-31.53 207.7-31.2 209.22-30.3 210.75-29.39 211.7-27.77 212.65-26.15 212.65-23.56L212.65-23.56Q212.65-21.14 211.42-19.14 210.19-17.14 207.7-16.26L207.7-16.26Q210.75-15.31 212.25-13.6 213.75-11.89 213.75-8.74ZM207.65-22.9L207.65-22.9Q207.65-24.29 207.12-25.17 206.6-26.05 205.77-26.53 204.94-27 203.91-27.15 202.89-27.29 201.84-27.29L201.84-27.29 197.3-27.29 197.3-18.51 201.84-18.51Q202.89-18.51 203.91-18.65 204.94-18.8 205.77-19.27 206.6-19.75 207.12-20.63 207.65-21.51 207.65-22.9ZM208.75-9.25L208.75-9.25Q208.75-11.65 207.07-12.79 205.4-13.94 202.4-13.94L202.4-13.94 197.3-13.94 197.3-4.54 202.4-4.54Q205.4-4.54 207.07-5.7 208.75-6.86 208.75-9.25ZM217.53-15.94L217.53-15.94Q217.53-19.14 218.22-22.12 218.9-25.1 220.34-27.37 221.78-29.64 224.11-31.02 226.44-32.4 229.74-32.4L229.74-32.4Q233.04-32.4 235.37-31.02 237.7-29.64 239.16-27.37 240.63-25.1 241.29-22.12 241.95-19.14 241.95-15.94L241.95-15.94Q241.95-12.74 241.29-9.78 240.63-6.81 239.19-4.5 237.75-2.2 235.42-0.82 233.09 0.56 229.74 0.56L229.74 0.56Q226.4 0.56 224.06-0.82 221.73-2.2 220.28-4.5 218.83-6.81 218.18-9.78 217.53-12.74 217.53-15.94ZM222.59-15.94L222.59-15.94Q222.59-13.79 222.92-11.65 223.25-9.5 224.04-7.8 224.83-6.1 226.21-5.05 227.59-4 229.74-4L229.74-4Q231.89-4 233.27-5.05 234.65-6.1 235.44-7.8 236.23-9.5 236.56-11.65 236.89-13.79 236.89-15.94L236.89-15.94Q236.89-18.09 236.56-20.21 236.23-22.34 235.44-24.05 234.65-25.76 233.24-26.81 231.84-27.86 229.74-27.86L229.74-27.86Q226.25-27.86 224.42-24.71 222.59-21.56 222.59-15.94ZM268.34-31.86L268.34-20.24 263.82-20.24 263.82-27.29 259.52-27.29 259.52-4.54 264.58-4.54 264.58 0 249.44 0 249.44-4.54 254.47-4.54 254.47-27.29 250.12-27.29 250.12-20.24 245.63-20.24 245.63-31.86 268.34-31.86Z" opacity="1" transform="matrix(1,0,0,1,0,0)" fill="#ffffff" class="wordmark-text-0" data-fill-palette-color="primary" id="text-0"></path></svg></g></svg></g></svg></g></svg></g><g><svg viewBox="0 0 127.48621395348836 127.48621395348836" height="127.48621395348836" width="127.48621395348836"><g><svg xmlns="http://www.w3.org/2000/svg" viewBox="8 8 48 48" x="0" y="0" height="127.48621395348836" width="127.48621395348836" class="icon-icon-0" data-fill-palette-color="accent" id="icon-0"></svg></g></svg></g></svg></g><defs></defs><mask id="a92c6f06-5166-43df-b175-cbfac6be7332"><g id="SvgjsG1223"><svg viewBox="0 0 395.52 94.337028662689" height="94.337028662689" width="395.52"><g><svg viewBox="0 0 534.5021786002735 127.48621395348836" height="94.337028662689" width="395.52"><g transform="matrix(1,0,0,1,138.98217860027358,39.39509056087551)"><svg viewBox="0 0 395.52 48.69603283173734" height="48.69603283173734" width="395.52"><g id="SvgjsG1222"><svg viewBox="0 0 395.52 48.69603283173734" height="48.69603283173734" width="395.52" id="SvgjsSvg1221"><g><svg viewBox="0 0 395.52 48.69603283173734" height="48.69603283173734" width="395.52"><g transform="matrix(1,0,0,1,0,0)"><svg width="395.52" viewBox="0.6600000262260437 -32.400001525878906 267.67999267578125 32.96000289916992" height="48.69603283173734" data-palette-color="#ffffff"></svg></g></svg></g></svg></g></svg></g><g><svg viewBox="0 0 127.48621395348836 127.48621395348836" height="127.48621395348836" width="127.48621395348836"><g><svg xmlns="http://www.w3.org/2000/svg" viewBox="8 8 48 48" x="0" y="0" height="127.48621395348836" width="127.48621395348836" class="icon-icon-0" data-fill-palette-color="accent" id="SvgjsSvg1219"><g data-name="Layer 51" fill="white"><path d="M52 8H12a4 4 0 0 0-4 4V52a4 4 0 0 0 4 4H52a4 4 0 0 0 4-4V12A4 4 0 0 0 52 8ZM12 10H52a2 2 0 0 1 2 2v8H10V12A2 2 0 0 1 12 10ZM52 54H12a2 2 0 0 1-2-2V22H54V52A2 2 0 0 1 52 54ZM24.42 44.51a1 1 0 0 1-0.67 1.74 1 1 0 0 1-0.67-0.26l-8-7.24a1 1 0 0 1 0-1.48l7.47-6.76A1 1 0 1 1 23.89 32l-6.65 6Zm24.25-7.24a1 1 0 0 1 0 1.48l-8 7.24a1 1 0 0 1-0.67 0.26 1 1 0 0 1-0.67-1.74L46.51 38l-6.65-6a1 1 0 0 1 1.34-1.48ZM38.86 29l-12 20a1 1 0 0 1-0.86 0.49 1 1 0 0 1-0.51-0.14A1 1 0 0 1 25.14 48l12-20a1 1 0 0 1 1.72 1ZM12 13a1 1 0 0 1 1-1H29a1 1 0 0 1 0 2H13A1 1 0 0 1 12 13Zm0 4a1 1 0 0 1 1-1H29a1 1 0 0 1 0 2H13A1 1 0 0 1 12 17Z" fill="white"></path></g></svg></g></svg></g></svg></g><defs></defs></svg></g></mask><linearGradient x1="0.054" x2="0.941" y1="0.5" y2="0.5" id="8d67ee5f-0c26-4168-8e3e-1c848b636304"><stop stop-color="#0f3054" offset="0"></stop><stop stop-color="#3b8dcb" offset="0.498"></stop><stop stop-color="#0f3054" offset="1"></stop></linearGradient><rect width="395.52001953125" height="94.33702850341797" fill="url(#8d67ee5f-0c26-4168-8e3e-1c848b636304)" mask="url(#a92c6f06-5166-43df-b175-cbfac6be7332)" data-fill-palette-color="accent"></rect></svg><rect width="395.52" height="94.337028662689" fill="none" stroke="none" visibility="hidden"></rect></g></svg></g></svg>